<svg xmlns="http://www.w3.org/2000/svg" viewBox="0 0 64 64"><title>no contact</title><g class="nc-icon-wrapper" stroke-linecap="square" stroke-linejoin="miter" stroke-width="2" fill="#111111" stroke="#111111"><path d="M17,57l1-14,4-2V31a8,8,0,0,0-8-8H10a8,8,0,0,0-8,8V41l4,2L7,57Z" fill="none" stroke="#111111" stroke-miterlimit="10"/><circle cx="12" cy="13" r="6" fill="none" stroke="#111111" stroke-miterlimit="10"/><path d="M57,57l1-14,4-2V31a8,8,0,0,0-8-8H50a8,8,0,0,0-8,8V41l4,2,1,14Z" fill="none" stroke="#111111" stroke-miterlimit="10"/><circle cx="52" cy="13" r="6" fill="none" stroke="#111111" stroke-miterlimit="10"/><line x1="32" y1="5" x2="32" y2="11" fill="none" stroke-miterlimit="10" data-color="color-2"/><line x1="32" y1="17" x2="32" y2="23" fill="none" stroke-miterlimit="10" data-color="color-2"/><line x1="32" y1="29" x2="32" y2="35" fill="none" stroke-miterlimit="10" data-color="color-2"/><line x1="32" y1="41" x2="32" y2="47" fill="none" stroke-miterlimit="10" data-color="color-2"/><line x1="32" y1="53" x2="32" y2="59" fill="none" stroke-miterlimit="10" data-color="color-2"/></g></svg>