<svg xmlns="http://www.w3.org/2000/svg" viewBox="0 0 64 64"><title>social distancing</title><g class="nc-icon-wrapper" stroke-linecap="square" stroke-linejoin="miter" stroke-width="2" fill="#111111" stroke="#111111"><path d="M19,41l4-2V29a8,8,0,0,0-8-8H11a8,8,0,0,0-8,8V39l4,2L8,55" fill="none" stroke="#111111" stroke-miterlimit="10"/><circle cx="13" cy="11" r="6" fill="none" stroke="#111111" stroke-miterlimit="10"/><line x1="14.001" y1="53.999" x2="50.999" y2="53.999" fill="none" stroke-miterlimit="10" data-cap="butt" data-color="color-2" stroke-linecap="butt"/><polyline points="21 61 14.001 53.999 21 47" fill="none" stroke-miterlimit="10" data-color="color-2"/><path d="M57,55l1-14,4-2V29a8,8,0,0,0-8-8H50a8,8,0,0,0-8,8V39l4,2" fill="none" stroke="#111111" stroke-miterlimit="10"/><circle cx="52" cy="11" r="6" fill="none" stroke="#111111" stroke-miterlimit="10"/><polyline points="44 61 50.999 53.999 44 47" fill="none" stroke-miterlimit="10" data-color="color-2"/></g></svg>