<svg xmlns="http://www.w3.org/2000/svg" viewBox="0 0 64 64"><title>medical mask</title><g class="nc-icon-wrapper" stroke-linecap="square" stroke-linejoin="miter" stroke-width="2" fill="#111111" stroke="#111111"><path d="M52,50.27V13a5,5,0,0,1,10,0V36c0,11.6-12,18-30,18S2,47.6,2,36V13a5,5,0,0,1,10,0V50.353" fill="none" stroke="#111111" stroke-miterlimit="10" data-cap="butt" stroke-linecap="butt"/><path d="M52,17.743C46.887,15.29,40.05,14,32,14s-14.887,1.29-20,3.743" fill="none" stroke="#111111" stroke-miterlimit="10" data-cap="butt" stroke-linecap="butt"/><path d="M46,34H18" fill="none" stroke-miterlimit="10" data-color="color-2"/><path d="M18,43.2A110.283,110.283,0,0,0,32,44a110.283,110.283,0,0,0,14-.8" fill="none" stroke-miterlimit="10" data-color="color-2"/><path d="M46,24.8A110.283,110.283,0,0,0,32,24a110.283,110.283,0,0,0-14,.8" fill="none" stroke-miterlimit="10" data-color="color-2"/></g></svg>